<svg xmlns="http://www.w3.org/2000/svg" viewBox="0 0 1024 1024" aria-hidden="true"><path fill="#5D3B26" transform="translate(0 1024) scale(1 -1)" d="M298.24 794.88L85.3333333333333 617.2586666666667L85.3333333333333 351.2746666666667L85.3333333333333 85.3333333333334L512 85.3333333333334L938.6666666666666 85.3333333333334L938.6666666666666 351.2746666666667L938.6666666666666 617.2586666666667L725.9306666666666 794.5813333333333C608.896 892.1600000000001 512.6826666666666 972.0746666666666 512.1706666666666 972.2453333333332C511.616 972.3733333333334 415.36 892.5866666666667 298.24 794.88M683.1786666666667 719.36L853.248 577.7066666666667L853.2906666666665 374.1866666666667L853.3333333333333 170.6666666666668L768 170.6666666666668L682.6666666666666 170.6666666666668L682.6666666666666 320L682.6666666666666 469.3333333333334L512 469.3333333333334L341.3333333333333 469.3333333333334L341.3333333333333 320L341.3333333333333 170.6666666666668L256 170.6666666666668L170.6666666666667 170.6666666666668L170.7093333333334 374.1866666666667L170.752 577.7066666666667L340.9493333333333 719.6586666666667C434.56 797.696 511.616 861.44 512.1706666666666 861.312C512.6826666666666 861.1413333333334 589.6533333333333 797.2693333333334 683.1786666666667 719.36M597.3333333333333 277.3333333333334L597.3333333333333 170.6666666666668L512 170.6666666666668L426.6666666666667 170.6666666666668L426.6666666666667 277.3333333333334L426.6666666666667 384L512 384L597.3333333333333 384L597.3333333333333 277.3333333333334"/></svg>